<svg xmlns="http://www.w3.org/2000/svg" version="1.1" xmlns:xlink="http://www.w3.org/1999/xlink" xmlns:svgjs="http://svgjs.com/svgjs" width="720" height="1280" preserveAspectRatio="none" viewBox="0 0 720 1280"><g mask="url(&quot;#SvgjsMask1036&quot;)" fill="none"><rect width="720" height="1280" x="0" y="0" fill="#0e2a47"></rect><path d="M37 1280L1317 0L1549.5 0L269.5 1280z" fill="url(#SvgjsLinearGradient1037)"></path><path d="M270.6 1280L1550.6 0L1750.1 0L470.1 1280z" fill="url(#SvgjsLinearGradient1037)"></path><path d="M693 1280L-587 0L-903.5 0L376.5 1280z" fill="url(#SvgjsLinearGradient1038)"></path><path d="M479.4 1280L-800.6 0L-1088.6 0L191.39999999999998 1280z" fill="url(#SvgjsLinearGradient1038)"></path><path d="M210.10645907766377 1280L720 770.1064590776638L720 1280z" fill="url(#SvgjsLinearGradient1037)"></path><path d="M0 1280L509.89354092233623 1280L 0 770.1064590776638z" fill="url(#SvgjsLinearGradient1038)"></path></g><defs><mask id="SvgjsMask1036"><rect width="720" height="1280" fill="#ffffff"></rect></mask><linearGradient x1="0%" y1="100%" x2="100%" y2="0%" id="SvgjsLinearGradient1037"><stop stop-color="rgba(15, 70, 185, 0.2)" offset="0"></stop><stop stop-opacity="0" stop-color="rgba(15, 70, 185, 0.2)" offset="0.66"></stop></linearGradient><linearGradient x1="100%" y1="100%" x2="0%" y2="0%" id="SvgjsLinearGradient1038"><stop stop-color="rgba(15, 70, 185, 0.2)" offset="0"></stop><stop stop-opacity="0" stop-color="rgba(15, 70, 185, 0.2)" offset="0.66"></stop></linearGradient></defs></svg>