<svg xmlns="http://www.w3.org/2000/svg" version="1.1" xmlns:xlink="http://www.w3.org/1999/xlink" xmlns:svgjs="http://svgjs.com/svgjs" width="720" height="1280" preserveAspectRatio="none" viewBox="0 0 720 1280"><g mask="url(&quot;#SvgjsMask1007&quot;)" fill="none"><rect width="720" height="1280" x="0" y="0" fill="#0e2a47"></rect><path d="M226.32 1187.53a0.87 0.87 0 1 0 1.26-1.19z" fill="#d3b714"></path><path d="M131.03 577.77 a18.69 18.69 0 1 0 37.38 0 a18.69 18.69 0 1 0 -37.38 0z" fill="#e73635"></path><path d="M400.34 949.83L459.46 949.83L459.46 1008.95L400.34 1008.95z" fill="#d3b714"></path><path d="M92.79 662.87a62.81 62.81 0 1 0 44.23-117.58z" fill="#e73635"></path><path d="M258.91 521.75L324.56 521.75L324.56 587.4L258.91 587.4z" fill="#d3b714"></path><path d="M233.21 456.53L244.28 456.53L244.28 506.67L233.21 506.67z" stroke="#037b0b"></path><path d="M281.61 925.19a60.98 60.98 0 1 0-119.31 25.31z" stroke="#037b0b"></path><path d="M30.77 883.15L82.88 883.15L82.88 935.26L30.77 935.26z" fill="#037b0b"></path><path d="M607.77 210.63L654.08 210.63L654.08 271.03L607.77 271.03z" stroke="#037b0b"></path><path d="M586.37 280.13 a70.84 70.84 0 1 0 141.68 0 a70.84 70.84 0 1 0 -141.68 0z" stroke="#e73635"></path><path d="M361.55 1267.57L401.34 1267.57L401.34 1307.36L361.55 1307.36z" stroke="#037b0b"></path><path d="M205.85 744.12a37.32 37.32 0 1 0 45.06-59.51z" stroke="#d3b714"></path><path d="M679.82 724.43 a2.17 2.17 0 1 0 4.34 0 a2.17 2.17 0 1 0 -4.34 0z" stroke="#d3b714"></path><path d="M310.1 1022.85 a12.64 12.64 0 1 0 25.28 0 a12.64 12.64 0 1 0 -25.28 0z" fill="#037b0b"></path><path d="M699.22 402.27 a1.1 1.1 0 1 0 2.2 0 a1.1 1.1 0 1 0 -2.2 0z" fill="#e73635"></path><path d="M302.89 910.5L371.16 910.5L371.16 978.77L302.89 978.77z" fill="#037b0b"></path><path d="M335.26 71.78L357.35 71.78L357.35 92.31L335.26 92.31z" fill="#e73635"></path><path d="M672.02 393.31L675.59 393.31L675.59 396.88L672.02 396.88z" fill="#d3b714"></path><path d="M269.77 741.95a17.34 17.34 0 1 0 20.06-28.3z" fill="#e73635"></path><path d="M153.66 1023.16L213.42 1023.16L213.42 1077.77L153.66 1077.77z" fill="#037b0b"></path><path d="M9.37 162.97L74.39 162.97L74.39 219.07L9.37 219.07z" fill="#d3b714"></path><path d="M595.69 763.35 a67.6 67.6 0 1 0 135.2 0 a67.6 67.6 0 1 0 -135.2 0z" stroke="#037b0b"></path><path d="M483.87 1271.37L512.73 1271.37L512.73 1300.23L483.87 1300.23z" stroke="#d3b714"></path></g><defs><mask id="SvgjsMask1007"><rect width="720" height="1280" fill="#ffffff"></rect></mask></defs></svg>